<?xml version="1.0" encoding="utf-8"?>
<!-- Generator: Adobe Illustrator 25.3.0, SVG Export Plug-In . SVG Version: 6.00 Build 0)  -->
<svg version="1.1" id="Capa_1" xmlns="http://www.w3.org/2000/svg" xmlns:xlink="http://www.w3.org/1999/xlink" x="0px" y="0px"
	 viewBox="0 0 200 200" style="enable-background:new 0 0 200 200;" xml:space="preserve">
<style type="text/css">
	.st0{fill:#FFFFFF;}
</style>
<g>
	<g>
		<path class="st0" d="M171.5,110.7l-68.4-60.4c-1.8-1.6-4.4-1.6-6.2,0l-68.4,60.4c-0.5,0.4-0.8,1.1-0.8,1.8v71c0,1.3,1,2.3,2.3,2.3
			h48.1c1.3,0,2.3-1,2.3-2.3v-45.4c0-5.2,4.2-9.4,9.4-9.4h20.3c5.2,0,9.4,4.2,9.4,9.4v45.4c0,1.3,1,2.3,2.3,2.3h48.1
			c1.3,0,2.3-1,2.3-2.3v-71C172.3,111.8,172,111.2,171.5,110.7z"/>
		<path class="st0" d="M190.3,87.3l-77.9-68.5c-7.1-6.2-17.7-6.2-24.7,0L9.7,87.3c-3.8,3.4-4,9.3-0.4,12.9v0
			c3.3,3.3,8.6,3.5,12.1,0.4l72.4-63.8c3.5-3.1,8.8-3.1,12.4,0l72.4,63.8c3.5,3.1,8.8,2.9,12.1-0.4
			C194.3,96.6,194.2,90.7,190.3,87.3z"/>
	</g>
</g>
</svg>
