<?xml version="1.0" encoding="utf-8"?>
<!-- Generator: Adobe Illustrator 25.3.0, SVG Export Plug-In . SVG Version: 6.00 Build 0)  -->
<svg version="1.1" id="Capa_1" xmlns="http://www.w3.org/2000/svg" xmlns:xlink="http://www.w3.org/1999/xlink" x="0px" y="0px"
	 viewBox="0 0 200 200" style="enable-background:new 0 0 200 200;" xml:space="preserve">
<style type="text/css">
	.st0{fill-rule:evenodd;clip-rule:evenodd;fill:#FFFFFF;}
</style>
<g>
	<path class="st0" d="M25.1,25.1c24.6-24.6,64.5-24.6,89.1,0c24.6,24.6,24.6,64.5,0,89.1c-24.6,24.6-64.5,24.6-89.1,0
		C0.5,89.6,0.5,49.7,25.1,25.1L25.1,25.1z M35.6,35.6c-18.8,18.8-18.8,49.3,0,68.1c18.8,18.8,49.3,18.8,68.1,0
		c18.8-18.8,18.8-49.3,0-68.1C84.9,16.8,54.4,16.8,35.6,35.6z"/>
	<path class="st0" d="M39.3,67c-0.2,2.5-2.4,4.4-4.9,4.1c-2.5-0.2-4.4-2.4-4.1-4.9c0.8-9.6,5-18.1,11.4-24.5
		c6.4-6.4,15-10.6,24.5-11.4c2.5-0.2,4.7,1.6,4.9,4.1c0.2,2.5-1.6,4.7-4.1,4.9c-7.4,0.6-14,3.9-18.9,8.8C43.2,53,39.9,59.6,39.3,67z
		"/>
	<path class="st0" d="M170,150.3l21.1,22.3c2.9,3,3,7.5,0.4,10.2l-4.4,4.4l-4.4,4.4c-2.6,2.6-7.1,2.5-10.2-0.4L150.3,170L120,141.3
		l21.3-21.3L170,150.3z"/>
	<polygon class="st0" points="115.9,137.3 101.8,111.4 106.6,106.6 111.4,101.8 137.3,115.9 126.6,126.6 	"/>
</g>
</svg>
