<?xml version="1.0" standalone="no"?>
<!DOCTYPE svg PUBLIC "-//W3C//DTD SVG 20010904//EN"
 "http://www.w3.org/TR/2001/REC-SVG-20010904/DTD/svg10.dtd">
<svg version="1.0" xmlns="http://www.w3.org/2000/svg"
 width="837.000000pt" height="1012.000000pt" viewBox="0 0 837.000000 1012.000000"
 preserveAspectRatio="xMidYMid meet">
<metadata>
Created by potrace 1.16, written by Peter Selinger 2001-2019
</metadata>
<g transform="translate(0.000000,1012.000000) scale(0.100000,-0.100000)"
fill="#000000" stroke="none">
<path d="M3723 9706 c-63 -21 -138 -58 -153 -76 -3 -4 -25 -20 -50 -37 -102
-69 -250 -247 -328 -393 -41 -77 -132 -316 -132 -347 0 -10 -7 -31 -15 -46 -8
-16 -14 -38 -14 -50 1 -12 -4 -44 -11 -72 -6 -27 -18 -86 -25 -130 -38 -215
-47 -258 -59 -288 -7 -18 -30 -86 -51 -152 -22 -66 -45 -133 -53 -149 -7 -15
-15 -47 -17 -70 -4 -55 -13 -93 -36 -143 -10 -24 -19 -48 -19 -54 0 -6 -9 -27
-21 -45 -11 -19 -16 -34 -10 -34 10 0 -3 -53 -19 -75 -15 -21 -30 -83 -24 -98
5 -15 8 -14 25 6 l19 22 -11 -30 c-6 -16 -13 -45 -16 -64 -2 -19 -8 -42 -13
-52 -25 -45 -7 -38 23 10 19 29 37 52 42 51 4 -1 11 3 15 10 10 16 5 -111 -5
-135 -8 -18 -7 -19 10 -5 16 14 17 13 12 -5 -14 -48 -20 -118 -8 -111 7 5 9 1
5 -8 -3 -9 -3 -24 1 -33 4 -10 9 -25 10 -33 1 -8 5 -25 9 -37 6 -18 4 -22 -8
-17 -10 4 -16 19 -16 41 0 44 -16 35 -23 -14 -36 -232 -43 -294 -27 -243 l8
25 1 -27 c1 -15 -3 -29 -8 -32 -5 -3 -12 -27 -15 -53 -4 -27 -12 -60 -18 -76
-10 -25 -12 -26 -24 -10 -8 11 -14 46 -14 88 l-1 70 -23 -75 c-13 -41 -27 -88
-31 -105 -4 -18 -10 -24 -13 -16 -4 13 -34 -38 -37 -64 -1 -5 -9 -32 -18 -60
-9 -27 -20 -76 -25 -107 -7 -48 -7 -56 5 -47 16 14 18 -3 3 -32 -18 -32 -3
-21 19 15 12 18 21 43 21 56 0 30 24 20 28 -13 2 -18 -3 -29 -17 -37 -30 -16
-44 -45 -27 -59 10 -8 16 -7 26 4 11 13 10 14 -5 9 -15 -6 -16 -5 -4 15 8 11
19 21 26 21 6 0 13 6 16 13 2 7 8 8 13 3 5 -5 4 -11 -3 -13 -7 -3 -13 -14 -13
-24 0 -13 4 -18 11 -13 9 5 10 -1 5 -22 -4 -16 -10 -42 -13 -57 -3 -16 -11
-31 -19 -34 -15 -5 -9 -51 12 -92 7 -13 10 -29 6 -35 -3 -6 -7 -18 -7 -26 -2
-35 -30 -140 -38 -140 -4 0 -5 10 -2 23 5 16 4 18 -4 7 -5 -8 -7 -26 -5 -40 3
-14 -1 -45 -10 -70 -9 -25 -16 -74 -16 -110 0 -89 -11 -170 -22 -170 -5 0 -8
20 -7 45 2 24 0 47 -4 51 -8 8 -11 -38 -9 -108 2 -29 -2 -48 -8 -48 -7 0 -9 8
-5 19 3 10 1 29 -4 42 l-10 24 0 -23 c-1 -21 -2 -22 -17 -8 -8 9 -13 20 -10
25 3 5 -1 11 -9 15 -18 7 -19 2 -1 -32 23 -47 26 -105 10 -232 -9 -69 -17
-134 -18 -145 -4 -36 -27 -138 -53 -230 -35 -127 -62 -248 -58 -256 3 -4 -4
-33 -14 -65 -28 -87 -47 -185 -62 -311 -7 -62 -15 -113 -18 -113 -16 0 -6 197
15 303 l6 27 -34 -19 c-30 -17 -60 -19 -373 -22 -187 -2 -413 -2 -503 -1 -141
3 -162 1 -162 -12 0 -14 -23 -16 -175 -16 -110 0 -175 -4 -175 -10 0 -14 -27
-13 -32 1 -5 14 -35 -176 -48 -301 -13 -125 -13 -491 0 -621 123 -1243 971
-2298 2160 -2689 l84 -28 36 -89 c40 -99 81 -170 150 -258 26 -34 52 -70 57
-80 13 -25 83 -218 89 -248 7 -32 12 -51 14 -57 1 -3 2 -8 1 -12 -1 -10 1729
-10 1731 0 0 4 2 18 3 32 2 22 6 47 20 140 2 14 7 61 10 105 8 96 12 126 40
278 3 15 34 107 68 203 l62 176 95 50 c731 390 1277 1047 1529 1838 16 52 43
147 59 210 l29 116 -156 0 c-130 1 -170 4 -241 23 -47 13 -102 25 -123 28 -20
3 -40 9 -43 14 -3 5 -15 9 -28 9 -12 0 -26 4 -31 8 -6 5 -36 17 -67 26 -61 19
-115 57 -104 75 5 8 0 8 -18 1 -21 -8 -28 -5 -45 15 -10 14 -26 25 -34 25 -9
0 -18 8 -20 18 -11 39 -6 -31 7 -130 8 -57 17 -135 21 -174 6 -68 5 -72 -24
-102 -26 -29 -60 -45 -47 -23 3 5 -8 14 -25 20 -26 9 -53 6 -157 -19 -71 -17
-134 -28 -146 -24 -22 7 -33 4 -29 -8 2 -4 -11 -5 -28 -1 -24 5 -33 1 -46 -17
l-17 -24 -12 35 c-7 19 -13 56 -13 83 -1 30 -7 56 -16 66 -14 16 -20 57 -24
167 -1 21 -11 42 -32 63 -28 27 -30 34 -21 55 12 26 50 45 189 95 51 18 90 36
87 41 -3 5 2 6 10 3 19 -7 56 13 51 29 -12 40 -14 67 -5 67 5 0 10 -11 10 -25
0 -21 5 -25 31 -25 17 0 28 -4 24 -10 -4 -6 8 -10 29 -10 32 0 36 3 37 28 0
26 1 26 9 4 5 -12 15 -22 22 -21 10 0 10 2 0 6 -6 2 -10 9 -7 13 8 12 35 1 35
-14 0 -7 11 -23 25 -36 14 -13 25 -31 25 -39 0 -9 7 -25 15 -35 16 -21 20 -10
6 14 -6 8 -7 19 -3 25 10 16 11 36 1 29 -5 -3 -12 2 -15 11 -4 9 -13 14 -20
11 -8 -3 -14 -1 -14 4 0 6 5 10 10 10 18 0 -13 39 -33 42 -20 3 -66 72 -56 83
4 3 23 -4 43 -16 20 -12 40 -19 43 -15 4 3 1 6 -5 6 -7 0 -12 13 -12 29 0 17
-4 33 -10 36 -5 3 -10 17 -10 30 0 20 6 24 38 27 31 2 36 6 34 23 -2 11 -5
261 -6 555 -2 294 -4 572 -5 618 l-1 82 -30 0 -30 0 0 80 c0 47 -4 80 -10 80
-5 0 -10 23 -10 50 0 28 -4 50 -10 50 -5 0 -10 9 -10 20 0 11 -4 20 -10 20 -5
0 -10 11 -10 24 0 14 -4 28 -10 31 -5 3 -10 33 -10 66 0 55 -11 76 -24 47 -5
-10 -7 -10 -12 0 -3 6 -14 12 -25 12 -21 0 -28 40 -6 40 6 0 3 6 -8 12 -22 13
-45 34 -45 41 0 17 64 70 85 70 17 0 25 5 25 17 0 10 15 27 33 39 17 11 50 38
72 60 21 23 45 41 52 41 8 0 36 15 64 34 27 19 58 38 69 41 11 4 20 10 20 14
0 18 -298 291 -318 291 -7 0 -20 -9 -29 -20 -10 -11 -22 -20 -28 -20 -6 0 -27
-9 -48 -20 -49 -26 -61 -26 -52 3 4 12 6 32 6 45 0 12 5 22 11 22 9 0 9 3 1
11 -9 9 -35 9 -105 0 -100 -13 -136 -28 -68 -29 45 -1 62 -9 43 -20 -17 -11
-23 -77 -23 -257 0 -188 2 -225 12 -240 3 -6 7 -63 7 -128 1 -65 6 -125 11
-135 27 -46 72 -323 62 -381 -4 -28 -2 -33 11 -28 16 6 33 -30 73 -153 10 -30
24 -60 31 -66 14 -12 18 -38 5 -30 -8 5 -4 -31 15 -139 3 -22 7 -70 7 -107 0
-37 3 -62 7 -57 12 20 -3 -96 -16 -123 -8 -16 -9 -28 -4 -28 14 0 11 -30 -3
-30 -7 -1 -22 -8 -33 -18 -26 -21 -27 -75 -2 -80 22 -5 22 -22 0 -23 -14 0
-15 -2 -3 -6 24 -9 30 -25 28 -73 0 -25 -3 -35 -5 -22 -5 25 -23 30 -23 7 0
-18 -16 -20 -24 -2 -9 21 4 -46 21 -102 12 -42 13 -58 4 -70 -6 -9 -14 -24
-17 -34 -4 -9 -15 -17 -25 -17 -27 0 -27 70 1 95 24 22 16 39 -15 31 -17 -4
-28 0 -39 15 -8 12 -18 19 -23 16 -4 -3 -9 13 -10 34 -4 57 -29 101 -56 97
-16 -2 -23 3 -25 19 -2 13 -8 23 -13 23 -5 0 -9 6 -9 14 0 8 -11 38 -25 68
-14 29 -25 69 -25 88 0 19 -7 48 -15 64 -19 37 -19 60 2 108 11 24 26 41 40
44 40 10 25 47 -53 132 -19 21 -34 40 -34 44 0 3 -16 25 -35 48 -35 42 -43 60
-26 60 14 0 91 -81 91 -96 0 -8 5 -13 11 -11 6 1 13 -9 15 -22 6 -34 11 -37
34 -16 15 14 23 15 33 6 11 -9 17 -8 26 3 10 12 8 17 -8 26 -21 11 -29 40 -11
40 6 0 10 6 10 14 0 7 9 16 20 19 21 5 71 104 85 165 6 28 4 32 -14 32 -12 0
-29 9 -38 20 -23 27 -37 25 -58 -6 -11 -18 -23 -24 -36 -21 -11 3 -33 1 -50
-3 -17 -5 -37 -6 -46 -3 -15 6 -15 5 2 128 2 11 4 22 6 25 1 3 3 23 4 45 3 74
27 143 54 155 l24 11 -23 24 c-22 24 -22 25 -10 132 7 59 12 116 11 126 -1 34
-1 42 3 67 2 14 1 29 -2 34 -5 8 -10 51 -13 104 -1 12 -7 22 -15 22 -8 0 -14
7 -14 15 0 8 -16 53 -35 99 -19 47 -35 94 -35 106 0 28 -91 298 -130 384 -16
37 -56 107 -88 154 -31 47 -61 94 -67 104 -5 10 -13 18 -17 18 -5 0 -8 12 -7
28 1 27 1 27 8 3 4 -14 12 -26 19 -29 25 -8 11 17 -35 65 -48 49 -85 78 -203
158 -36 24 -84 62 -108 84 -24 23 -47 41 -52 41 -5 0 -14 8 -19 19 -6 10 -26
37 -46 61 -37 44 -54 79 -82 162 -14 43 -14 49 0 63 17 17 31 20 22 5 -3 -5
-2 -10 2 -10 10 0 33 -58 33 -84 0 -23 48 -116 60 -116 6 0 10 -7 10 -16 0 -8
4 -13 9 -9 5 3 13 0 17 -6 4 -8 3 -9 -4 -5 -7 4 -12 3 -12 -3 0 -25 259 -241
289 -241 6 0 -28 40 -76 88 -49 49 -98 102 -110 118 -16 20 -21 23 -16 9 6
-20 6 -20 -10 0 -8 10 -12 26 -9 34 4 10 1 13 -10 9 -10 -4 -23 3 -35 20 -34
47 -36 58 -3 22 45 -50 12 9 -47 83 -24 30 -29 47 -14 47 5 0 16 -16 25 -35
18 -37 46 -63 31 -29 -4 10 -9 33 -10 49 -1 17 -6 39 -12 50 -15 30 -25 78
-15 71 6 -3 13 -18 17 -33 8 -34 77 -185 82 -180 2 2 -8 29 -22 61 -14 31 -25
60 -25 64 0 15 27 -36 44 -83 10 -27 23 -54 29 -60 7 -7 7 -4 2 10 -12 30 -16
137 -5 130 6 -4 7 7 4 27 -4 22 10 1 43 -62 27 -52 61 -114 76 -137 15 -24 27
-45 27 -48 0 -3 16 -28 35 -55 20 -28 33 -55 29 -61 -3 -6 -13 -1 -22 13 -9
13 -22 30 -29 38 -7 8 -20 24 -28 35 -15 19 -16 19 -4 -5 20 -43 72 -110 80
-105 4 3 10 1 14 -5 9 -15 25 -12 25 6 0 9 -5 12 -12 8 -7 -4 -8 -3 -4 4 4 7
-12 44 -36 84 -50 87 -79 144 -108 218 -12 30 -31 72 -42 93 -11 20 -15 37 -9
37 6 0 11 -4 11 -8 0 -5 7 -17 15 -28 14 -18 14 -17 5 10 -9 26 -9 27 5 16 16
-14 20 -3 6 19 -5 8 -18 12 -30 8 -17 -4 -19 -1 -15 22 3 15 -3 74 -15 132
-28 148 -31 182 -15 204 14 19 19 11 15 -23 -1 -8 2 -19 7 -25 6 -7 13 -30 17
-52 24 -147 39 -202 111 -420 26 -80 116 -269 132 -279 5 -3 -20 52 -54 122
-34 69 -61 129 -58 133 2 4 -4 29 -14 56 -11 26 -25 73 -31 103 -7 30 -16 64
-21 75 -11 26 -30 118 -36 173 l-4 43 25 -17 c14 -9 25 -23 25 -30 0 -8 7 -14
15 -14 8 0 15 -4 15 -10 0 -5 -5 -10 -11 -10 -8 0 -8 -4 -2 -12 5 -7 16 -29
23 -48 13 -31 40 -70 40 -56 0 9 -24 61 -31 66 -3 3 -10 16 -14 29 -5 17 -4
21 5 16 8 -5 10 4 6 32 -3 21 -3 31 0 23 3 -8 19 -43 35 -78 16 -34 29 -68 29
-75 1 -12 39 -87 40 -77 0 3 -9 29 -20 58 -23 60 -26 89 -5 52 19 -37 58 -160
52 -167 -3 -3 4 -15 15 -27 34 -35 77 -138 67 -159 -7 -13 -6 -19 6 -23 8 -3
15 -14 15 -23 0 -30 97 -217 107 -207 2 2 -4 21 -15 43 -28 56 -37 87 -22 78
9 -6 11 -4 6 4 -5 7 -11 10 -14 7 -5 -5 -52 68 -52 81 0 13 22 -13 34 -40 8
-18 15 -25 15 -17 1 22 -22 85 -39 105 -12 14 -12 19 -2 22 17 6 15 23 -3 23
-8 0 -15 7 -15 16 0 16 -52 125 -95 198 -25 42 -47 96 -41 96 2 0 18 -25 35
-55 17 -30 34 -55 37 -55 8 0 -7 44 -17 50 -10 7 -33 62 -30 74 1 5 -4 6 -11
4 -9 -4 -13 5 -12 31 0 20 -5 46 -13 58 -18 30 -16 36 7 23 18 -10 18 -7 -5
36 -14 26 -25 55 -25 64 0 9 -3 20 -7 24 -14 13 -30 76 -26 98 2 13 -9 59 -25
103 -15 44 -29 100 -31 125 -2 25 -6 47 -9 50 -4 3 -8 12 -9 20 -3 24 -13 71
-29 132 -8 32 -30 146 -49 255 -57 322 -83 430 -132 548 -24 58 -112 215 -120
215 -2 0 -1 -5 3 -12 4 -7 3 -8 -5 -4 -6 4 -9 12 -6 17 10 15 -34 69 -50 62
-8 -3 -15 0 -15 7 0 6 5 8 10 5 19 -12 10 12 -12 31 -12 10 -18 13 -14 7 4 -7
3 -13 -1 -13 -12 0 -33 22 -33 35 0 5 5 3 11 -5 9 -13 10 -13 6 0 -2 8 -8 15
-14 15 -6 0 -30 19 -54 43 -24 23 -47 42 -52 42 -4 0 -5 5 -2 10 3 6 2 10 -3
10 -5 0 -29 13 -53 30 -64 42 -149 57 -329 58 -137 1 -163 -1 -227 -22z m367
-256 c130 -31 230 -82 289 -146 66 -74 131 -240 131 -336 0 -52 -22 -50 -79
10 -25 26 -59 54 -76 62 -16 8 -32 17 -35 20 -13 13 -89 50 -101 49 -8 0 0 -7
16 -14 33 -14 105 -80 105 -96 0 -6 11 -27 25 -47 29 -42 31 -54 10 -46 -23 9
-18 -10 10 -34 47 -41 71 -115 80 -247 5 -66 8 -151 6 -190 -2 -72 -32 -175
-57 -196 -8 -6 -14 -19 -14 -29 0 -9 -34 -51 -76 -93 l-75 -77 27 -35 c14 -19
30 -32 35 -29 5 3 6 10 3 16 -4 7 -2 8 4 4 7 -4 12 -1 12 8 0 8 4 17 8 20 4 2
7 -17 6 -44 -1 -32 -8 -57 -23 -75 -11 -15 -21 -25 -21 -21 0 3 -53 -46 -117
-109 -65 -63 -121 -115 -126 -115 -4 0 -21 -7 -37 -15 -30 -15 -43 -11 -183
67 -12 7 -23 13 -23 13 -1 0 -5 10 -8 22 -6 19 -2 25 26 36 18 8 59 17 90 20
73 9 98 21 125 59 25 35 23 49 -3 27 -17 -14 -30 -16 -126 -19 -64 -2 -146 35
-126 56 4 4 197 22 278 26 32 2 70 -11 70 -23 0 -6 5 -7 11 -3 25 15 -11 77
-46 79 -5 0 -39 10 -75 22 -40 13 -87 21 -122 20 -68 -2 -95 15 -63 39 12 9
31 13 48 10 23 -5 28 -2 26 12 -3 36 2 42 34 42 41 0 73 21 64 44 -8 19 -67
22 -86 4 -11 -10 -14 -10 -18 0 -3 6 -13 12 -22 12 -23 0 -72 59 -67 79 12 41
27 304 21 369 l-7 74 -51 24 c-29 13 -65 24 -80 24 -18 0 -39 11 -56 28 l-27
27 1 149 1 148 33 14 c18 8 42 14 52 14 11 0 19 5 19 11 0 12 -47 4 -90 -14
-14 -6 -29 -12 -35 -12 -14 -3 -47 -15 -67 -26 -10 -5 -25 -9 -33 -9 -8 0 -15
-8 -15 -17 0 -14 -2 -15 -9 -5 -4 8 -11 13 -15 12 -22 -5 -24 11 -10 65 15 58
92 215 120 242 16 17 89 43 118 43 12 0 26 4 32 9 15 15 43 17 159 15 73 -1
142 -9 205 -24z m-354 -959 c-3 -4 0 -22 6 -38 9 -25 8 -37 -11 -75 -12 -25
-23 -59 -25 -76 -3 -16 -16 -51 -30 -78 -14 -27 -26 -55 -26 -61 0 -27 -17
-12 -29 25 -14 45 -26 61 -68 91 -18 12 -33 27 -33 32 0 5 -11 27 -24 48 l-25
38 25 12 c14 6 31 11 39 11 8 0 36 13 62 28 71 42 154 68 139 43z m431 -1028
c32 -34 37 -47 46 -116 l11 -79 43 -20 c42 -20 44 -20 93 -2 27 10 51 16 52
13 2 -2 17 -30 33 -63 28 -55 79 -116 97 -116 19 0 147 -103 195 -157 130
-146 163 -192 224 -310 21 -43 39 -72 39 -65 0 22 18 12 29 -15 l11 -28 -5 27
c-9 48 14 40 26 -9 10 -37 14 -43 19 -27 4 10 4 24 0 29 -4 6 -12 25 -18 44
-11 31 -11 32 6 20 28 -23 38 -39 55 -93 48 -148 56 -169 56 -146 0 29 -29
136 -53 195 -9 22 -10 32 -3 21 6 -10 24 -32 40 -48 15 -17 27 -36 27 -44 0
-8 4 -14 10 -14 5 0 14 -19 20 -42 7 -24 17 -61 25 -83 17 -53 30 -206 16
-185 -6 8 -11 26 -11 40 0 18 -3 21 -9 11 -5 -7 -14 -10 -20 -7 -6 4 -11 1
-11 -8 0 -8 5 -16 10 -18 6 -2 8 -17 3 -38 -6 -33 -7 -34 -14 -10 -6 20 -7 17
-9 -20 -1 -25 -2 -67 -1 -95 2 -27 -3 -61 -9 -75 -10 -23 -10 -22 -6 12 4 28
-1 43 -20 65 -26 31 -29 39 -14 48 6 3 10 18 10 33 0 53 -22 5 -25 -55 -4 -81
-16 -152 -32 -190 -7 -18 -20 -62 -28 -96 -8 -35 -25 -86 -37 -113 -22 -49
-24 -54 -26 -86 -1 -9 -14 -31 -28 -48 -24 -27 -26 -38 -24 -98 5 -138 5 -161
-2 -167 -3 -4 -36 7 -72 24 -93 45 -141 61 -224 76 -54 10 -90 24 -135 53 -34
22 -129 77 -212 122 -224 123 -281 157 -339 205 -29 23 -63 48 -75 54 -12 7
-19 16 -16 22 4 5 1 9 -5 9 -6 0 -9 -8 -6 -17 7 -25 -47 -83 -77 -83 -36 0
-77 23 -83 47 -3 12 -12 24 -20 27 -7 3 -13 2 -11 -2 1 -4 -1 -8 -6 -9 -4 -2
-47 -49 -96 -106 -48 -57 -127 -139 -175 -183 -47 -43 -109 -107 -138 -141
-28 -34 -56 -59 -61 -56 -6 3 -7 1 -3 -5 4 -7 -3 -22 -14 -34 -34 -36 -59 -91
-53 -120 3 -14 0 -29 -6 -32 -13 -9 -44 39 -47 73 -1 14 -9 40 -18 56 -9 17
-16 39 -16 50 1 22 48 -69 50 -95 1 -8 8 2 17 23 8 20 18 37 22 37 4 0 6 14 3
30 -4 29 11 42 21 18 3 -7 6 3 7 22 1 29 3 32 10 15 9 -20 9 -20 15 2 4 12 14
24 22 27 8 3 11 11 7 17 -3 6 0 15 7 20 10 6 11 9 2 9 -23 0 -14 18 15 28 15
6 20 11 11 11 -9 1 -20 8 -23 17 -4 10 -13 14 -24 10 -15 -5 -15 -5 -1 6 20
16 24 29 10 37 -7 5 -4 15 9 29 11 11 20 26 20 31 0 14 37 24 64 17 34 -8 120
37 217 116 49 40 89 73 89 75 0 2 -17 -5 -37 -16 -21 -10 -66 -27 -100 -37
-35 -10 -63 -22 -63 -25 0 -4 -11 -6 -25 -4 -14 1 -25 -2 -25 -8 0 -6 -4 -6
-12 0 -7 6 -22 9 -33 6 -56 -12 -139 -12 -147 -1 -6 10 -10 10 -19 -2 -9 -12
-10 -12 -5 4 6 19 -8 36 -29 36 -5 0 -3 -5 5 -10 9 -6 10 -10 3 -10 -7 0 -18
10 -24 23 -7 12 -17 25 -23 29 -8 6 -8 8 1 8 6 0 9 9 6 21 -4 16 -8 17 -14 7
-6 -9 -9 -9 -9 -1 0 6 4 15 10 18 6 4 4 15 -5 29 -8 12 -12 26 -8 30 4 4 -1 4
-10 0 -13 -5 -15 -10 -8 -17 6 -6 11 -24 11 -41 0 -46 -20 -18 -25 35 -2 24
-9 67 -15 94 -14 60 -21 235 -11 235 8 0 17 56 33 198 1 7 8 10 15 8 8 -3 11
-1 8 4 -3 6 1 22 9 37 8 16 24 51 36 78 22 53 88 155 101 155 4 0 23 25 44 55
42 63 68 73 59 23 -4 -25 -3 -29 5 -18 6 8 11 29 11 46 0 20 10 41 33 63 17
19 33 39 33 45 1 6 2 17 3 24 0 7 6 10 11 7 6 -4 10 -3 8 2 -3 15 52 124 60
119 9 -5 25 74 17 82 -2 2 -10 -9 -19 -25 -8 -16 -21 -30 -29 -30 -10 0 -6 12
14 40 27 37 28 41 11 53 -11 9 -13 13 -4 14 7 0 11 4 8 9 -4 5 -3 16 0 25 5
12 9 13 19 3 7 -7 11 -15 8 -19 -7 -13 8 -9 23 6 18 18 18 27 0 20 -19 -7 -13
80 7 100 19 19 27 11 28 -28 l0 -31 12 25 c6 14 11 26 12 27 1 2 15 -2 31 -7
16 -5 60 -19 97 -31 l69 -21 30 31 c17 17 48 36 69 43 22 6 44 17 50 25 6 7
18 13 25 13 15 0 134 114 134 128 0 11 22 32 33 32 4 0 24 -17 44 -37z m-1199
-118 c2 -10 -1 -20 -6 -24 -13 -8 -19 -53 -8 -69 4 -7 2 -36 -5 -65 -11 -45
-14 -48 -19 -27 -4 15 -7 0 -7 -40 -1 -36 -4 -76 -6 -90 -2 -14 -5 -30 -6 -36
0 -7 -8 -14 -16 -18 -12 -4 -14 0 -9 18 3 13 1 33 -4 43 -14 26 -26 263 -13
263 5 0 7 10 3 22 -3 13 -1 19 6 15 5 -4 12 -4 15 0 2 5 2 1 -1 -7 -2 -8 -6
-37 -7 -65 -2 -27 -1 -36 2 -20 2 17 14 38 24 48 11 10 22 32 26 48 6 32 26
34 31 4z m278 -91 c-19 -81 -72 -213 -89 -227 -8 -7 -23 -28 -35 -47 -12 -19
-33 -48 -47 -65 -14 -16 -35 -40 -46 -53 -10 -12 -19 -27 -19 -32 0 -6 -4 -10
-9 -10 -5 0 -12 -13 -16 -30 -4 -16 -13 -30 -21 -30 -8 0 -14 -5 -14 -11 0 -6
-13 -27 -30 -47 -16 -20 -45 -55 -63 -78 -18 -22 -48 -71 -67 -107 -19 -37
-38 -67 -42 -67 -13 0 -10 7 19 53 14 23 26 47 26 54 0 7 7 15 15 18 8 3 11
12 8 21 -4 9 -2 13 5 8 7 -4 9 0 5 14 -4 12 -2 23 5 28 8 5 10 3 4 -7 -4 -8
13 7 39 33 29 30 44 53 40 63 -3 8 -2 15 4 15 5 0 13 8 16 17 4 10 4 14 0 11
-3 -4 -12 -2 -18 4 -13 13 -9 71 5 62 5 -3 6 1 3 9 -5 15 33 128 47 138 8 5
15 43 18 99 1 20 3 22 11 10 8 -12 10 -11 10 6 0 12 13 39 28 60 15 21 34 55
42 74 26 67 55 93 31 28 -4 -13 -11 -36 -15 -53 -6 -28 -5 -29 9 -11 18 24 19
19 4 -23 -8 -22 -16 -30 -26 -26 -11 3 -13 1 -9 -10 3 -8 -8 -50 -24 -92 -16
-42 -28 -78 -27 -80 5 -5 62 121 59 130 -1 5 2 6 8 2 5 -3 10 -2 10 2 0 5 7
18 15 29 27 35 -4 -43 -47 -117 -21 -36 -38 -72 -38 -80 0 -8 20 20 44 61 25
41 49 80 54 86 19 21 42 81 57 144 l14 65 -5 -55 -5 -55 23 40 c12 22 23 42
24 45 1 3 5 21 10 40 4 19 10 28 12 19 1 -9 -4 -43 -12 -75z m1891 -1473 c-3
-28 -15 -71 -26 -98 -28 -67 -36 -124 -16 -117 8 4 15 14 15 24 0 11 5 22 12
26 8 5 9 -4 4 -35 -4 -28 -3 -40 4 -36 5 3 10 17 10 31 0 13 5 24 11 24 6 0 8
-7 5 -16 -10 -26 -28 -147 -27 -182 0 -34 -37 -131 -51 -132 -5 0 -9 26 -10
58 -1 31 -2 66 -3 77 -1 11 -3 28 -4 38 0 9 -4 16 -8 16 -21 -3 -22 4 -7 39 9
20 16 48 15 61 0 13 3 29 8 35 5 6 11 25 13 41 3 17 13 50 21 75 9 25 19 62
22 83 9 55 19 45 12 -12z m-2377 18 c0 -11 5 -17 10 -14 6 4 10 -16 10 -51 0
-68 17 -63 23 6 2 25 3 6 2 -42 -1 -49 1 -88 5 -88 4 0 7 -30 7 -66 0 -44 -3
-61 -9 -52 -7 9 -7 6 -1 -7 8 -19 12 -110 14 -315 0 -52 4 -125 8 -162 4 -38
6 -68 4 -68 -7 0 -33 75 -33 96 0 13 -4 24 -8 24 -5 0 -8 16 -7 36 1 20 0 45
-3 56 -4 17 -7 16 -18 -12 -8 -18 -14 -44 -15 -59 0 -23 -1 -24 -8 -6 -5 12
-2 40 6 69 8 27 14 78 14 114 0 36 4 73 10 83 5 10 10 36 11 56 1 21 6 41 12
45 8 5 7 8 -1 8 -9 0 -12 18 -11 60 1 40 5 56 11 48 6 -9 7 -7 3 5 -3 10 -6
26 -7 35 0 14 -2 13 -10 -3 -8 -16 -8 -15 -4 8 3 16 -1 52 -9 80 -22 81 -29
137 -17 137 6 0 11 -9 11 -21z m1429 -264 c98 -33 382 -185 388 -207 4 -11 15
-18 32 -18 14 0 32 -4 40 -9 11 -7 10 -10 -4 -18 -9 -6 -20 -25 -25 -44 -6
-24 -8 -27 -9 -11 -1 20 -3 21 -21 10 -11 -7 -20 -22 -20 -33 0 -17 -2 -18
-11 -5 -9 13 -10 12 -5 -2 3 -10 9 -25 12 -33 4 -10 2 -14 -7 -10 -23 8 -42
-10 -34 -34 5 -17 14 -21 51 -21 53 0 77 -19 72 -57 -3 -26 -6 -27 -56 -28
-46 0 -54 3 -58 22 l-6 22 -23 -25 c-23 -25 -45 -32 -45 -14 0 6 7 10 15 10 8
0 15 3 15 6 0 9 -28 34 -39 34 -23 0 -82 44 -87 66 -4 14 -13 23 -23 22 -48
-4 -68 5 -96 42 -16 22 -36 37 -42 35 -23 -8 -43 7 -43 31 0 25 -15 33 -23 12
-7 -20 -15 -6 -30 50 -7 29 -16 50 -19 47 -7 -7 -2 34 6 56 6 15 -26 38 -63
45 -7 1 -19 8 -25 15 -8 9 -7 11 5 6 13 -4 16 -1 12 14 -3 12 -11 18 -19 15
-8 -3 -14 -1 -14 5 0 5 10 14 23 19 39 16 102 11 176 -15z m-1254 -206 c-5
-15 -4 -19 4 -15 14 9 14 -7 0 -21 -11 -11 -15 -98 -6 -123 3 -8 8 -40 11 -70
4 -30 13 -109 21 -175 17 -139 20 -325 5 -325 -5 0 -10 -13 -10 -29 0 -17 -4
-33 -10 -36 -6 -4 -7 1 -3 11 5 14 2 16 -20 12 -22 -4 -27 -1 -28 16 -1 12 -5
7 -9 -14 -5 -22 -8 20 -9 111 -1 117 -4 149 -16 159 -8 7 -15 17 -15 23 0 6 6
2 14 -9 8 -10 17 -16 20 -13 3 3 -7 24 -24 47 -33 46 -35 52 -18 52 6 0 8 -3
5 -7 -9 -9 22 -43 40 -43 8 0 13 12 13 33 0 17 2 70 5 117 4 61 3 79 -4 63 -6
-13 -13 -23 -16 -23 -4 0 -3 5 1 12 4 7 8 62 8 123 1 79 4 109 13 108 6 -2 15
6 18 17 4 11 9 20 11 20 3 0 2 -10 -1 -21z m1734 -731 c5 -13 21 -33 35 -45
17 -15 26 -33 25 -50 0 -27 0 -28 -10 -5 -5 13 -13 21 -18 18 -10 -7 -3 -44
10 -52 5 -3 9 -17 9 -31 0 -15 -3 -24 -6 -21 -3 4 -21 -9 -39 -27 l-34 -33
-46 15 c-28 10 -45 21 -46 32 0 10 -2 11 -6 4 -2 -7 -9 -13 -14 -13 -10 0 11
52 26 62 6 5 3 8 -7 8 -20 0 -26 44 -7 55 6 4 8 13 5 21 -3 8 1 14 9 14 8 0
15 6 15 14 0 8 14 19 30 25 17 5 30 15 30 20 0 20 30 11 39 -11z m1281 -258
c0 -140 4 -220 10 -220 6 0 10 -9 10 -20 0 -13 -7 -20 -20 -20 -11 0 -20 -4
-20 -10 0 -5 -9 -10 -20 -10 -20 0 -27 -15 -33 -80 -3 -28 -10 296 -8 350 4
80 9 131 14 137 4 3 7 -14 7 -38 0 -24 5 -51 10 -59 7 -11 10 3 10 48 0 56 -2
62 -21 62 -13 0 -23 8 -27 22 -5 21 -6 21 -13 2 -7 -18 -8 -18 -8 3 -2 44 9
53 60 53 l49 0 0 -220z m-3455 -114 c-4 -14 -3 -17 3 -8 16 23 48 0 43 -30 0
-5 5 -8 13 -8 9 0 15 -20 20 -62 3 -34 11 -76 18 -94 9 -26 9 -37 -3 -56 -8
-12 -21 -42 -29 -65 -7 -24 -19 -44 -27 -44 -7 -1 -19 -2 -25 -3 -8 -1 -13
-15 -13 -34 0 -31 -17 -43 -30 -22 -10 16 -35 -8 -35 -32 0 -10 -5 -16 -10
-13 -7 4 -7 12 0 25 7 13 7 21 0 25 -5 3 -10 15 -10 27 0 11 -11 33 -25 50
-25 30 -34 68 -15 68 6 0 10 -12 10 -26 l0 -27 20 26 c25 31 26 57 2 57 -20 0
-27 37 -10 57 7 9 6 14 -6 19 -11 4 -16 19 -16 50 0 35 5 47 25 60 14 9 28 28
31 43 10 39 21 49 49 43 20 -3 24 -9 20 -26z m2479 -136 c9 -19 10 -28 3 -23
-7 3 -4 -3 6 -14 26 -30 31 -82 13 -137 -22 -63 -20 -76 7 -76 47 0 101 -54
160 -163 31 -57 57 -113 57 -125 0 -12 9 -45 21 -74 22 -57 22 -109 -1 -164
-11 -26 -10 -39 5 -89 15 -46 34 -74 92 -136 77 -83 143 -203 156 -284 l6 -40
-21 25 c-11 14 -35 54 -53 90 -40 78 -91 139 -150 180 -51 35 -55 36 -55 12 0
-30 -65 -96 -127 -129 -64 -34 -209 -91 -378 -148 -149 -50 -250 -99 -375
-182 -112 -74 -140 -88 -140 -72 0 6 -5 7 -10 4 -6 -4 -7 -11 -4 -17 4 -6 1
-9 -7 -6 -8 3 -22 1 -33 -4 -42 -22 -2 14 62 55 37 24 101 73 142 110 103 92
191 139 378 202 159 54 356 144 420 192 35 26 41 53 17 73 -8 7 -15 20 -15 29
0 10 -11 28 -24 40 -16 15 -36 59 -56 125 -17 55 -50 146 -72 201 -91 226 -99
255 -86 318 8 38 9 68 2 94 -8 34 -13 38 -38 36 -20 -1 -26 2 -22 12 2 7 0 16
-7 19 -7 2 -2 5 11 5 17 1 22 7 22 26 0 19 5 25 23 24 21 0 21 -1 2 -10 -15
-7 -12 -8 14 -4 42 6 48 12 33 27 -14 14 -16 42 -3 33 6 -3 16 -19 25 -35z
m-950 -164 c86 5 86 4 96 -21 6 -15 10 -45 10 -67 0 -39 -1 -40 -30 -36 -16 2
-32 0 -34 -6 -3 -7 -11 -3 -20 7 -13 17 -20 18 -63 8 -27 -5 -90 -13 -139 -17
-50 -4 -98 -12 -107 -19 -11 -8 -19 -30 -21 -61 -2 -31 -17 -75 -40 -122 -47
-91 -58 -126 -43 -141 8 -8 8 -14 2 -19 -6 -4 -10 -22 -11 -40 -1 -18 -4 -35
-7 -39 -9 -8 -38 17 -31 28 3 5 -1 7 -8 4 -7 -3 -19 4 -26 16 -11 17 -11 20 0
13 23 -15 49 -11 59 9 8 14 7 22 -2 31 -9 8 -10 8 -5 -1 5 -9 2 -11 -8 -7 -9
3 -16 10 -16 15 0 4 -6 6 -14 3 -11 -4 -14 5 -12 43 3 54 64 192 77 172 4 -7
14 -9 22 -6 15 6 16 47 2 129 -6 32 -9 37 -21 27 -19 -15 -91 -4 -132 21 -26
16 -32 26 -32 55 0 33 2 35 33 35 17 0 57 -12 87 -26 73 -35 131 -35 194 -1
27 15 58 27 70 27 12 0 28 5 36 10 11 7 19 5 31 -10 15 -17 26 -19 103 -14z
m1082 -1012 c-20 -14 -20 -14 0 -29 19 -14 19 -14 -1 -15 -18 0 -18 -1 3 -16
22 -15 30 -44 12 -44 -5 0 -7 -7 -3 -16 3 -8 12 -13 20 -9 11 3 13 1 10 -10
-4 -8 -2 -17 3 -20 10 -6 -37 -95 -51 -95 -5 0 -9 -9 -9 -19 0 -11 -4 -22 -9
-25 -11 -7 -2 -57 15 -76 18 -22 17 -245 -2 -261 -8 -6 -11 -16 -8 -21 3 -5
-4 -17 -16 -25 -21 -15 -22 -20 -15 -95 6 -75 5 -80 -19 -109 -14 -17 -29 -43
-32 -57 -3 -15 -10 -35 -15 -45 -5 -10 -7 -22 -4 -27 10 -16 -22 -11 -39 5
-13 14 -14 11 -10 -22 3 -21 7 -45 8 -54 3 -14 -4 -16 -40 -12 -24 2 -44 0
-44 -5 0 -5 -11 -7 -25 -4 -28 5 -69 55 -62 75 3 7 6 5 6 -5 1 -10 8 -18 17
-18 14 0 15 6 9 33 -5 17 -8 49 -7 70 1 20 -3 37 -8 37 -6 0 -10 -6 -10 -12 0
-10 -2 -10 -8 0 -5 7 -8 67 -7 135 1 91 -2 130 -13 154 -13 27 -13 37 -3 57 7
13 10 33 6 45 -4 14 -2 20 5 19 7 -2 11 36 12 121 1 68 4 119 6 113 7 -22 20
-12 24 17 2 17 1 28 -2 26 -4 -3 -4 15 1 38 11 57 11 55 -11 62 -36 11 -21 25
28 26 33 0 41 3 27 8 -18 7 -18 8 5 13 14 3 63 23 110 43 47 20 100 42 118 48
17 6 32 15 32 20 0 6 3 7 7 3 5 -4 -1 -14 -11 -22z m-2316 -172 c37 -30 116
-63 270 -112 91 -28 195 -62 231 -75 132 -47 346 -105 417 -114 54 -7 82 -16
107 -36 36 -27 45 -50 23 -58 -7 -2 -1 -8 14 -12 16 -4 26 -10 23 -14 -7 -12
-107 5 -198 33 -45 13 -181 55 -302 91 -373 113 -439 136 -424 147 11 7 9 8
-6 7 -18 -2 -63 12 -88 28 -6 3 -7 1 -3 -5 9 -15 6 -15 -35 2 -64 27 -79 50
-79 119 0 61 0 61 17 37 9 -14 24 -31 33 -38z m2978 -54 c20 -15 48 -91 38
-106 -3 -6 2 -18 11 -28 19 -18 22 -18 -45 1 -18 5 -35 -5 -85 -49 -74 -67
-89 -71 -76 -20 8 25 7 39 -1 49 -9 11 -9 27 0 66 7 28 10 66 7 85 -5 32 -4
33 14 23 11 -5 30 -9 42 -7 12 1 27 -1 34 -5 7 -5 14 4 18 25 11 51 20 57 23
16 2 -21 11 -43 20 -50z m-3436 -122 c4 -28 26 -31 30 -4 2 18 11 6 40 -52 40
-83 61 -190 37 -190 -11 0 -11 -2 1 -9 8 -6 18 -7 22 -5 4 3 5 -2 2 -11 -5
-12 -10 -13 -17 -6 -6 6 -40 11 -75 11 -50 0 -63 3 -59 14 3 7 1 18 -5 24 -5
5 -13 40 -18 77 -5 37 -14 72 -22 76 -7 5 -8 9 -2 9 6 0 8 19 4 55 -3 31 -4
57 -2 59 9 9 62 -31 64 -48z"/>
<path d="M4239 8806 c-2 -2 -20 -7 -39 -10 -19 -3 -66 -12 -105 -21 -38 -8
-82 -18 -97 -21 -42 -10 -48 -24 -41 -98 5 -61 9 -69 32 -78 14 -5 33 -16 42
-24 19 -17 53 -8 45 12 -3 8 -2 14 3 14 5 0 11 -9 14 -20 4 -16 14 -20 46 -20
35 0 43 4 57 31 l16 31 17 -28 18 -29 -33 -12 c-31 -11 -71 -10 -125 2 -17 5
-30 1 -38 -9 -11 -13 -8 -18 21 -36 44 -27 95 -27 103 0 7 23 21 26 28 8 4
-10 6 -10 6 0 1 7 6 10 11 7 6 -3 24 3 40 15 17 12 30 19 30 16 0 -3 23 18 50
46 28 28 50 55 50 60 0 20 -29 36 -83 49 -32 7 -56 17 -54 23 7 21 60 25 109
9 56 -18 69 -12 42 18 -34 38 -147 83 -165 65z"/>
<path d="M5000 3785 c0 -2 9 -21 21 -41 27 -48 105 -249 114 -294 4 -19 11
-39 15 -45 4 -5 11 -38 15 -73 4 -35 10 -61 13 -58 11 12 42 111 42 136 0 14
-9 43 -20 64 -10 22 -17 43 -14 47 3 5 0 9 -5 9 -6 0 -10 10 -10 23 3 71 -65
202 -117 226 -25 11 -54 15 -54 6z"/>
<path d="M4874 7665 c2 -11 10 -47 16 -80 7 -33 23 -75 37 -93 14 -18 22 -39
20 -47 -5 -11 14 -67 67 -200 5 -12 10 -15 13 -8 2 6 -3 23 -13 38 -13 19 -13
24 -2 20 16 -6 41 -65 27 -65 -5 0 -9 -8 -9 -17 0 -15 -4 -13 -20 7 -10 14
-21 23 -23 20 -3 -3 6 -18 19 -33 13 -15 24 -22 24 -16 0 10 3 10 13 0 10 -11
10 -14 0 -18 -7 -3 -13 -9 -13 -14 0 -4 6 -6 14 -3 10 4 27 -20 55 -75 23 -44
41 -87 41 -95 0 -8 6 -21 14 -29 19 -18 56 -88 56 -104 0 -7 5 -13 10 -13 6 0
10 -8 10 -17 0 -13 3 -14 11 -6 15 15 0 52 -55 143 -22 36 -39 71 -39 78 0 6
-4 12 -9 12 -7 0 -24 30 -60 113 -13 30 1 19 28 -23 34 -51 44 -45 11 7 -13
21 -28 49 -32 63 -4 14 -11 30 -15 35 -4 6 -40 75 -80 155 -40 80 -76 152 -80
160 -4 9 -11 34 -14 56 -4 21 -12 46 -17 54 -8 12 -9 11 -5 -5z"/>
<path d="M2510 6865 c-7 -30 -16 -55 -19 -55 -3 0 -7 -35 -9 -77 -2 -43 -7
-82 -12 -88 -4 -5 -12 -30 -18 -55 -5 -25 -13 -54 -18 -65 -7 -19 -7 -19 9 -3
9 9 17 24 17 33 0 11 5 15 15 11 8 -3 15 -1 15 4 0 6 -4 10 -9 10 -5 0 -7 9
-4 21 4 16 8 17 14 7 6 -8 9 -1 9 22 0 25 3 31 10 20 7 -11 11 -9 19 13 6 15
12 27 14 27 4 0 0 -26 -27 -145 -20 -86 -20 -91 -1 -75 8 7 15 22 15 34 0 12
4 26 9 32 14 13 41 126 41 167 0 19 -6 52 -14 73 -7 22 -17 63 -21 92 -4 28
-10 52 -14 52 -4 0 -14 -25 -21 -55z"/>
<path d="M6049 4958 c-1 -46 -2 -325 -3 -620 l-1 -536 32 -4 33 -4 0 503 c0
496 0 503 -20 503 -17 0 -20 7 -20 40 0 34 3 40 21 40 17 0 20 5 17 38 -2 30
-7 38 -26 40 -21 3 -23 7 -17 43 4 25 3 39 -4 39 -7 0 -12 -31 -12 -82z"/>
<path d="M370 3226 c0 -16 25 -144 46 -236 41 -177 108 -387 175 -551 57 -140
195 -411 252 -494 51 -75 61 -90 132 -197 31 -49 64 -88 72 -88 8 0 11 -5 8
-10 -3 -6 0 -16 7 -24 7 -7 29 -33 48 -57 19 -24 45 -54 58 -67 12 -13 22 -25
22 -27 0 -8 81 -95 180 -194 106 -105 274 -253 346 -304 21 -15 82 -59 134
-97 54 -39 98 -64 101 -58 4 7 9 6 13 -1 4 -6 4 -11 -1 -11 -4 0 9 -11 29 -25
44 -30 48 -30 48 -8 0 18 10 12 14 -9 4 -28 17 -40 32 -27 11 9 14 8 14 -2 0
-8 19 -26 43 -41 69 -43 247 -128 244 -116 -1 6 4 13 10 15 8 3 13 -3 13 -15
0 -24 79 -57 160 -67 69 -8 58 3 -45 43 -44 17 -125 53 -180 80 -91 46 -101
49 -114 34 -12 -15 -12 -15 -6 5 6 22 -2 28 -27 24 -5 0 -8 3 -8 8 0 5 -30 26
-67 46 -38 21 -91 53 -120 71 -52 35 -69 41 -58 25 3 -5 1 -12 -5 -16 -5 -3
-10 1 -10 9 0 9 -6 16 -12 16 -10 0 -10 2 -1 8 9 6 4 13 -17 26 -27 15 -30 16
-30 1 0 -9 -5 -13 -11 -10 -6 4 -8 13 -5 21 3 8 -6 21 -20 31 -39 27 -177 135
-198 155 -10 9 -24 15 -29 11 -6 -3 -7 -1 -4 4 4 6 -10 23 -31 39 -77 58 -342
334 -441 459 -56 72 -108 137 -114 145 -11 13 -139 211 -173 267 -72 117 -192
365 -246 508 -72 190 -152 478 -182 657 -7 38 -46 76 -46 44z"/>
<path d="M7834 2911 c-22 -10 -58 -34 -79 -52 -118 -104 -114 -313 8 -413 61
-50 106 -66 182 -66 161 0 275 114 275 275 0 162 -113 275 -275 275 -47 0 -84
-7 -111 -19z m156 -12 c93 -20 137 -55 182 -143 43 -82 17 -218 -54 -282 -78
-71 -198 -87 -289 -37 -77 41 -124 113 -132 199 -6 59 10 109 55 175 27 39 43
52 88 68 47 17 72 25 100 30 3 0 25 -4 50 -10z"/>
</g>
</svg>
